<svg width="16" height="18" viewBox="0 0 16 18" fill="none" xmlns="http://www.w3.org/2000/svg">
<path d="M11.1714 0.621914C10.9786 0.24075 10.5821 0 10.15 0H5.85C5.41786 0 5.02143 0.24075 4.82857 0.621914L4.57143 1.125H1.14286C0.510714 1.125 0 1.62879 0 2.25C0 2.87121 0.510714 3.375 1.14286 3.375H14.8571C15.4882 3.375 16 2.87121 16 2.25C16 1.62879 15.4882 1.125 14.8571 1.125H11.4286L11.1714 0.621914ZM14.8893 4.5H1.14286V15.75C1.14286 16.991 2.16786 18 3.42857 18H12.6036C13.8339 18 14.8893 16.991 14.8893 15.75V4.5ZM12.0321 7.3125V15.1875C12.0321 15.4969 11.7429 15.75 11.4607 15.75C11.1143 15.75 10.8893 15.4969 10.8893 15.1875V7.3125C10.8893 7.00313 11.1143 6.75 11.4607 6.75C11.7429 6.75 12.0321 7.00313 12.0321 7.3125ZM8.60357 7.3125V15.1875C8.60357 15.4969 8.31429 15.75 8.03214 15.75C7.68571 15.75 7.42857 15.4969 7.42857 15.1875V7.3125C7.42857 7.00313 7.68571 6.75 8.03214 6.75C8.31429 6.75 8.60357 7.00313 8.60357 7.3125ZM5.14286 7.3125V15.1875C5.14286 15.4969 4.88571 15.75 4.57143 15.75C4.25714 15.75 4 15.4969 4 15.1875V7.3125C4 7.00313 4.25714 6.75 4.57143 6.75C4.88571 6.75 5.14286 7.00313 5.14286 7.3125Z" fill="#F8F8F8"/>
</svg>
