<svg width="18" height="18" viewBox="0 0 18 18" fill="none" xmlns="http://www.w3.org/2000/svg">
<path d="M17.2371 1.42032C18.007 2.18919 18.007 3.43583 17.2371 4.2047L16.1824 5.2629L12.7371 1.81829L13.7953 0.761496C14.5652 -0.00749414 15.8098 -0.00749414 16.5797 0.761496L17.2371 1.42032ZM6.06094 8.49728L11.9426 2.61353L15.3879 6.05743L9.50273 11.9391C9.28828 12.157 9.02461 12.3188 8.73281 12.4172L5.61094 13.4578C5.27695 13.5563 4.97461 13.4789 4.74609 13.2223C4.52109 13.0254 4.44375 12.6914 4.54219 12.3891L5.58281 9.2672C5.68125 8.9754 5.84297 8.71173 6.06094 8.49728ZM6.75 2.21837C7.37227 2.21837 7.875 2.7538 7.875 3.34337C7.875 3.99728 7.37227 4.46837 6.75 4.46837H3.375C2.75379 4.46837 2.25 5.00275 2.25 5.59337V14.625C2.25 15.2473 2.75379 15.75 3.375 15.75H12.375C12.9973 15.75 13.5 15.2473 13.5 14.625V11.2184C13.5 10.6277 14.0027 10.0934 14.625 10.0934C15.2473 10.0934 15.75 10.6277 15.75 11.2184V14.625C15.75 16.4883 14.2383 18 12.375 18H3.375C1.51102 18 0 16.4883 0 14.625V5.59337C0 3.73009 1.51102 2.21837 3.375 2.21837H6.75Z" fill="#F8F8F8"/>
</svg>
